# xmcd
#
# Track frame offsets: 
#        150
#        17915
#        37223
#
# Disc length: 705 seconds
#
# Revision: 0
# Processed by: cddbd v1.5.2PL0 Copyright (c) Steve Scherf et al.
# Submitted via: ExactAudioCopy v1.0b3
#
DISCID=2202bf03
DTITLE=Steven Seagal - Somewhere In Between (Promo CDS)
DYEAR=2007
DGENRE=Blues
TTITLE0=Somewhere In Between (Radio Edit)
TTITLE1=Somewhere In Between (Album Version)
TTITLE2=Shake (Album Version)
EXTD=
EXTT0=
EXTT1=
EXTT2=
PLAYORDER=
